<svg id="my-svg" width="100%" xmlns="http://www.w3.org/2000/svg" xmlns:xlink="http://www.w3.org/1999/xlink" class="classDiagram" style="max-width: 900.367px; background-color: white;" viewBox="0 0 900.3671875 1242" role="graphics-document document" aria-roledescription="class"><style>#my-svg{font-family:"trebuchet ms",verdana,arial,sans-serif;font-size:16px;fill:#333;}@keyframes edge-animation-frame{from{stroke-dashoffset:0;}}@keyframes dash{to{stroke-dashoffset:0;}}#my-svg .edge-animation-slow{stroke-dasharray:9,5!important;stroke-dashoffset:900;animation:dash 50s linear infinite;stroke-linecap:round;}#my-svg .edge-animation-fast{stroke-dasharray:9,5!important;stroke-dashoffset:900;animation:dash 20s linear infinite;stroke-linecap:round;}#my-svg .error-icon{fill:#552222;}#my-svg .error-text{fill:#552222;stroke:#552222;}#my-svg .edge-thickness-normal{stroke-width:1px;}#my-svg .edge-thickness-thick{stroke-width:3.5px;}#my-svg .edge-pattern-solid{stroke-dasharray:0;}#my-svg .edge-thickness-invisible{stroke-width:0;fill:none;}#my-svg .edge-pattern-dashed{stroke-dasharray:3;}#my-svg .edge-pattern-dotted{stroke-dasharray:2;}#my-svg .marker{fill:#333333;stroke:#333333;}#my-svg .marker.cross{stroke:#333333;}#my-svg svg{font-family:"trebuchet ms",verdana,arial,sans-serif;font-size:16px;}#my-svg p{margin:0;}#my-svg g.classGroup text{fill:#9370DB;stroke:none;font-family:"trebuchet ms",verdana,arial,sans-serif;font-size:10px;}#my-svg g.classGroup text .title{font-weight:bolder;}#my-svg .cluster-label text{fill:#333;}#my-svg .cluster-label span{color:#333;}#my-svg .cluster-label span p{background-color:transparent;}#my-svg .cluster rect{fill:#ffffde;stroke:#aaaa33;stroke-width:1px;}#my-svg .cluster text{fill:#333;}#my-svg .cluster span{color:#333;}#my-svg .nodeLabel,#my-svg .edgeLabel{color:#131300;}#my-svg .noteLabel .nodeLabel,#my-svg .noteLabel .edgeLabel{color:black;}#my-svg .edgeLabel .label rect{fill:#ECECFF;}#my-svg .label text{fill:#131300;}#my-svg .labelBkg{background:#ECECFF;}#my-svg .edgeLabel .label span{background:#ECECFF;}#my-svg .classTitle{font-weight:bolder;}#my-svg .node rect,#my-svg .node circle,#my-svg .node ellipse,#my-svg .node polygon,#my-svg .node path{fill:#ECECFF;stroke:#9370DB;stroke-width:1;}#my-svg .divider{stroke:#9370DB;stroke-width:1;}#my-svg g.clickable{cursor:pointer;}#my-svg g.classGroup rect{fill:#ECECFF;stroke:#9370DB;}#my-svg g.classGroup line{stroke:#9370DB;stroke-width:1;}#my-svg .classLabel .box{stroke:none;stroke-width:0;fill:#ECECFF;opacity:0.5;}#my-svg .classLabel .label{fill:#9370DB;font-size:10px;}#my-svg .relation{stroke:#333333;stroke-width:1;fill:none;}#my-svg .dashed-line{stroke-dasharray:3;}#my-svg .dotted-line{stroke-dasharray:1 2;}#my-svg [id$="-compositionStart"],#my-svg .composition{fill:#333333!important;stroke:#333333!important;stroke-width:1;}#my-svg [id$="-compositionEnd"],#my-svg .composition{fill:#333333!important;stroke:#333333!important;stroke-width:1;}#my-svg [id$="-dependencyStart"],#my-svg .dependency{fill:#333333!important;stroke:#333333!important;stroke-width:1;}#my-svg [id$="-dependencyEnd"],#my-svg .dependency{fill:#333333!important;stroke:#333333!important;stroke-width:1;}#my-svg [id$="-extensionStart"],#my-svg .extension{fill:transparent!important;stroke:#333333!important;stroke-width:1;}#my-svg [id$="-extensionEnd"],#my-svg .extension{fill:transparent!important;stroke:#333333!important;stroke-width:1;}#my-svg [id$="-aggregationStart"],#my-svg .aggregation{fill:transparent!important;stroke:#333333!important;stroke-width:1;}#my-svg [id$="-aggregationEnd"],#my-svg .aggregation{fill:transparent!important;stroke:#333333!important;stroke-width:1;}#my-svg [id$="-lollipopStart"],#my-svg .lollipop{fill:#ECECFF!important;stroke:#333333!important;stroke-width:1;}#my-svg [id$="-lollipopEnd"],#my-svg .lollipop{fill:#ECECFF!important;stroke:#333333!important;stroke-width:1;}#my-svg .edgeTerminals{font-size:11px;line-height:initial;}#my-svg .classTitleText{text-anchor:middle;font-size:18px;fill:#333;}#my-svg .edgeLabel[data-look="neo"]{background-color:rgba(232,232,232, 0.8);text-align:center;}#my-svg .edgeLabel[data-look="neo"] p{background-color:rgba(232,232,232, 0.8);}#my-svg .edgeLabel[data-look="neo"] rect{opacity:0.5;background-color:rgba(232,232,232, 0.8);fill:rgba(232,232,232, 0.8);}#my-svg .label-icon{display:inline-block;height:1em;overflow:visible;vertical-align:-0.125em;}#my-svg .node .label-icon path{fill:currentColor;stroke:revert;stroke-width:revert;}#my-svg .node .neo-node{stroke:#9370DB;}#my-svg [data-look="neo"].node rect,#my-svg [data-look="neo"].cluster rect,#my-svg [data-look="neo"].node polygon{stroke:#9370DB;filter:drop-shadow(1px 2px 2px rgba(185, 185, 185, 1));}#my-svg [data-look="neo"].node path{stroke:#9370DB;stroke-width:1px;}#my-svg [data-look="neo"].node .outer-path{filter:drop-shadow(1px 2px 2px rgba(185, 185, 185, 1));}#my-svg [data-look="neo"].node .neo-line path{stroke:#9370DB;filter:none;}#my-svg [data-look="neo"].node circle{stroke:#9370DB;filter:drop-shadow(1px 2px 2px rgba(185, 185, 185, 1));}#my-svg [data-look="neo"].node circle .state-start{fill:#000000;}#my-svg [data-look="neo"].icon-shape .icon{fill:#9370DB;filter:drop-shadow(1px 2px 2px rgba(185, 185, 185, 1));}#my-svg [data-look="neo"].icon-shape .icon-neo path{stroke:#9370DB;filter:drop-shadow(1px 2px 2px rgba(185, 185, 185, 1));}#my-svg :root{--mermaid-font-family:"trebuchet ms",verdana,arial,sans-serif;}</style><g><defs><marker id="my-svg_class-aggregationStart" class="marker aggregation class" refX="18" refY="7" markerWidth="190" markerHeight="240" orient="auto"><path d="M 18,7 L9,13 L1,7 L9,1 Z"/></marker></defs><defs><marker id="my-svg_class-aggregationEnd" class="marker aggregation class" refX="1" refY="7" markerWidth="20" markerHeight="28" orient="auto"><path d="M 18,7 L9,13 L1,7 L9,1 Z"/></marker></defs><defs><marker id="my-svg_class-aggregationStart-margin" class="marker aggregation class" refX="15" refY="7" markerWidth="190" markerHeight="240" orient="auto" markerUnits="userSpaceOnUse"><path d="M 18,7 L9,13 L1,7 L9,1 Z" style="stroke-width: 2;"/></marker></defs><defs><marker id="my-svg_class-aggregationEnd-margin" class="marker aggregation class" refX="1" refY="7" markerWidth="20" markerHeight="28" orient="auto" markerUnits="userSpaceOnUse"><path d="M 18,7 L9,13 L1,7 L9,1 Z" style="stroke-width: 2;"/></marker></defs><defs><marker id="my-svg_class-extensionStart" class="marker extension class" refX="18" refY="7" markerWidth="20" markerHeight="28" orient="auto" markerUnits="userSpaceOnUse"><path d="M 1,7 L18,13 V 1 Z"/></marker></defs><defs><marker id="my-svg_class-extensionEnd" class="marker extension class" refX="1" refY="7" markerWidth="20" markerHeight="28" orient="auto"><path d="M 1,1 V 13 L18,7 Z"/></marker></defs><marker id="my-svg_class-extensionStart-margin" class="marker extension class" refX="18" refY="7" markerWidth="20" markerHeight="28" orient="auto" markerUnits="userSpaceOnUse" viewBox="0 0 20 14"><polygon points="10,7 18,13 18,1" style="stroke-width: 2; stroke-dasharray: 0;"/></marker><defs><marker id="my-svg_class-extensionEnd-margin" class="marker extension class" refX="9" refY="7" markerWidth="20" markerHeight="28" orient="auto" markerUnits="userSpaceOnUse" viewBox="0 0 20 14"><polygon points="10,1 10,13 18,7" style="stroke-width: 2; stroke-dasharray: 0;"/></marker></defs><defs><marker id="my-svg_class-compositionStart" class="marker composition class" refX="18" refY="7" markerWidth="190" markerHeight="240" orient="auto"><path d="M 18,7 L9,13 L1,7 L9,1 Z"/></marker></defs><defs><marker id="my-svg_class-compositionEnd" class="marker composition class" refX="1" refY="7" markerWidth="20" markerHeight="28" orient="auto"><path d="M 18,7 L9,13 L1,7 L9,1 Z"/></marker></defs><defs><marker id="my-svg_class-compositionStart-margin" class="marker composition class" refX="15" refY="7" markerWidth="190" markerHeight="240" orient="auto" markerUnits="userSpaceOnUse"><path viewBox="0 0 15 15" d="M 18,7 L9,13 L1,7 L9,1 Z" style="stroke-width: 0;"/></marker></defs><defs><marker id="my-svg_class-compositionEnd-margin" class="marker composition class" refX="3.5" refY="7" markerWidth="20" markerHeight="28" orient="auto" markerUnits="userSpaceOnUse"><path d="M 18,7 L9,13 L1,7 L9,1 Z" style="stroke-width: 0;"/></marker></defs><defs><marker id="my-svg_class-dependencyStart" class="marker dependency class" refX="6" refY="7" markerWidth="190" markerHeight="240" orient="auto"><path d="M 5,7 L9,13 L1,7 L9,1 Z"/></marker></defs><defs><marker id="my-svg_class-dependencyEnd" class="marker dependency class" refX="13" refY="7" markerWidth="20" markerHeight="28" orient="auto"><path d="M 18,7 L9,13 L14,7 L9,1 Z"/></marker></defs><defs><marker id="my-svg_class-dependencyStart-margin" class="marker dependency class" refX="4" refY="7" markerWidth="190" markerHeight="240" orient="auto" markerUnits="userSpaceOnUse"><path d="M 5,7 L9,13 L1,7 L9,1 Z" style="stroke-width: 0;"/></marker></defs><defs><marker id="my-svg_class-dependencyEnd-margin" class="marker dependency class" refX="16" refY="7" markerWidth="20" markerHeight="28" orient="auto" markerUnits="userSpaceOnUse"><path d="M 18,7 L9,13 L14,7 L9,1 Z" style="stroke-width: 0;"/></marker></defs><defs><marker id="my-svg_class-lollipopStart" class="marker lollipop class" refX="13" refY="7" markerWidth="190" markerHeight="240" orient="auto"><circle fill="transparent" cx="7" cy="7" r="6"/></marker></defs><defs><marker id="my-svg_class-lollipopEnd" class="marker lollipop class" refX="1" refY="7" markerWidth="190" markerHeight="240" orient="auto"><circle fill="transparent" cx="7" cy="7" r="6"/></marker></defs><defs><marker id="my-svg_class-lollipopStart-margin" class="marker lollipop class" refX="13" refY="7" markerWidth="190" markerHeight="240" orient="auto" markerUnits="userSpaceOnUse"><circle fill="transparent" cx="7" cy="7" r="6" stroke-width="2"/></marker></defs><defs><marker id="my-svg_class-lollipopEnd-margin" class="marker lollipop class" refX="1" refY="7" markerWidth="190" markerHeight="240" orient="auto" markerUnits="userSpaceOnUse"><circle fill="transparent" cx="7" cy="7" r="6" stroke-width="2"/></marker></defs><g class="root"><g class="clusters"/><g class="edgePaths"><path d="M182.798,272L173.228,278.167C163.658,284.333,144.519,296.667,134.949,308C125.379,319.333,125.379,329.667,125.379,334.833L125.379,340" id="my-svg-id_AppController_Parsers_1" class="edge-thickness-normal edge-pattern-solid relation" style=";;;" data-edge="true" data-et="edge" data-id="id_AppController_Parsers_1" data-points="W3sieCI6MTgyLjc5ODAwNzU4MTM2MDkzLCJ5IjoyNzJ9LHsieCI6MTI1LjM3ODkwNjI1LCJ5IjozMDl9LHsieCI6MTI1LjM3ODkwNjI1LCJ5IjozNDZ9XQ==" data-look="classic" marker-end="url(#my-svg_class-dependencyEnd)"/><path d="M387.645,272L387.645,278.167C387.645,284.333,387.645,296.667,387.645,312C387.645,327.333,387.645,345.667,387.645,354.833L387.645,364" id="my-svg-id_AppController_Algorithm_2" class="edge-thickness-normal edge-pattern-solid relation" style=";;;" data-edge="true" data-et="edge" data-id="id_AppController_Algorithm_2" data-points="W3sieCI6Mzg3LjY0NDUzMTI1LCJ5IjoyNzJ9LHsieCI6Mzg3LjY0NDUzMTI1LCJ5IjozMDl9LHsieCI6Mzg3LjY0NDUzMTI1LCJ5IjozNzB9XQ==" data-look="classic" marker-end="url(#my-svg_class-dependencyEnd)"/><path d="M569.291,272L577.777,278.167C586.263,284.333,603.235,296.667,611.721,312C620.207,327.333,620.207,345.667,620.207,354.833L620.207,364" id="my-svg-id_AppController_Output_3" class="edge-thickness-normal edge-pattern-solid relation" style=";;;" data-edge="true" data-et="edge" data-id="id_AppController_Output_3" data-points="W3sieCI6NTY5LjI5MDk4MDk1NDE0MiwieSI6MjcyfSx7IngiOjYyMC4yMDcwMzEyNSwieSI6MzA5fSx7IngiOjYyMC4yMDcwMzEyNSwieSI6MzcwfV0=" data-look="classic" marker-end="url(#my-svg_class-dependencyEnd)"/><path d="M620.207,514L620.207,524.167C620.207,534.333,620.207,554.667,620.207,570C620.207,585.333,620.207,595.667,620.207,600.833L620.207,606" id="my-svg-id_Output_OutputManager_4" class="edge-thickness-normal edge-pattern-solid relation" style=";;;" data-edge="true" data-et="edge" data-id="id_Output_OutputManager_4" data-points="W3sieCI6NjIwLjIwNzAzMTI1LCJ5Ijo1MTR9LHsieCI6NjIwLjIwNzAzMTI1LCJ5Ijo1NzV9LHsieCI6NjIwLjIwNzAzMTI1LCJ5Ijo2MTJ9XQ==" data-look="classic" marker-end="url(#my-svg_class-dependencyEnd)"/><path d="M518.935,762L510.609,768.167C502.282,774.333,485.628,786.667,477.301,798C468.975,809.333,468.975,819.667,468.975,824.833L468.975,830" id="my-svg-id_OutputManager_IOutputWriter_5" class="edge-thickness-normal edge-pattern-solid relation" style=";;;" data-edge="true" data-et="edge" data-id="id_OutputManager_IOutputWriter_5" data-points="W3sieCI6NTE4LjkzNTMyMDE3Mjk5MSwieSI6NzYyfSx7IngiOjQ2OC45NzQ2MDkzNzUsInkiOjc5OX0seyJ4Ijo0NjguOTc0NjA5Mzc1LCJ5Ijo4MzZ9XQ==" data-look="classic" marker-end="url(#my-svg_class-dependencyEnd)"/><path d="M468.975,1003.25L468.975,1006.542C468.975,1009.833,468.975,1016.417,476.496,1025.875C484.017,1035.333,499.058,1047.667,506.579,1053.833L514.1,1060" id="my-svg-id_IOutputWriter_ScheduleReportWriter_6" class="edge-thickness-normal edge-pattern-dashed relation" style=";;;" data-edge="true" data-et="edge" data-id="id_IOutputWriter_ScheduleReportWriter_6" data-points="W3sieCI6NDY4Ljk3NDYwOTM3NSwieSI6OTg2fSx7IngiOjQ2OC45NzQ2MDkzNzUsInkiOjEwMjN9LHsieCI6NTE0LjEwMDQxMjY3NjQxMTMsInkiOjEwNjB9XQ==" data-look="classic" marker-start="url(#my-svg_class-extensionStart)"/><path d="M721.479,762L729.806,768.167C738.132,774.333,754.786,786.667,763.113,811.5C771.439,836.333,771.439,873.667,771.439,911C771.439,948.333,771.439,985.667,764.692,1009.866C757.944,1034.065,744.449,1045.13,737.701,1050.663L730.953,1056.196" id="my-svg-id_OutputManager_ScheduleReportWriter_7" class="edge-thickness-normal edge-pattern-dashed relation" style=";;;" data-edge="true" data-et="edge" data-id="id_OutputManager_ScheduleReportWriter_7" data-points="W3sieCI6NzIxLjQ3ODc0MjMyNzAwOSwieSI6NzYyfSx7IngiOjc3MS40Mzk0NTMxMjUsInkiOjc5OX0seyJ4Ijo3NzEuNDM5NDUzMTI1LCJ5Ijo5MTF9LHsieCI6NzcxLjQzOTQ1MzEyNSwieSI6MTAyM30seyJ4Ijo3MjYuMzEzNjQ5ODIzNTg4NywieSI6MTA2MH1d" data-look="classic" marker-end="url(#my-svg_class-dependencyEnd)"/></g><g class="edgeLabels"><g class="edgeLabel" transform="translate(125.37890625, 309)"><g class="label" data-id="id_AppController_Parsers_1" transform="translate(-15.2109375, -12)"><foreignObject width="30.421875" height="24"><div xmlns="http://www.w3.org/1999/xhtml" class="labelBkg" style="display: table-cell; white-space: nowrap; line-height: 1.5; max-width: 200px; text-align: center;"><span class="edgeLabel"><p>uses</p></span></div></foreignObject></g></g><g class="edgeLabel" transform="translate(387.64453125, 309)"><g class="label" data-id="id_AppController_Algorithm_2" transform="translate(-15.2109375, -12)"><foreignObject width="30.421875" height="24"><div xmlns="http://www.w3.org/1999/xhtml" class="labelBkg" style="display: table-cell; white-space: nowrap; line-height: 1.5; max-width: 200px; text-align: center;"><span class="edgeLabel"><p>uses</p></span></div></foreignObject></g></g><g class="edgeLabel" transform="translate(620.20703125, 309)"><g class="label" data-id="id_AppController_Output_3" transform="translate(-15.2109375, -12)"><foreignObject width="30.421875" height="24"><div xmlns="http://www.w3.org/1999/xhtml" class="labelBkg" style="display: table-cell; white-space: nowrap; line-height: 1.5; max-width: 200px; text-align: center;"><span class="edgeLabel"><p>uses</p></span></div></foreignObject></g></g><g class="edgeLabel" transform="translate(620.20703125, 575)"><g class="label" data-id="id_Output_OutputManager_4" transform="translate(-29.890625, -12)"><foreignObject width="59.78125" height="24"><div xmlns="http://www.w3.org/1999/xhtml" class="labelBkg" style="display: table-cell; white-space: nowrap; line-height: 1.5; max-width: 200px; text-align: center;"><span class="edgeLabel"><p>contains</p></span></div></foreignObject></g></g><g class="edgeLabel" transform="translate(468.974609375, 799)"><g class="label" data-id="id_OutputManager_IOutputWriter_5" transform="translate(-34.5390625, -12)"><foreignObject width="69.078125" height="24"><div xmlns="http://www.w3.org/1999/xhtml" class="labelBkg" style="display: table-cell; white-space: nowrap; line-height: 1.5; max-width: 200px; text-align: center;"><span class="edgeLabel"><p>delegates</p></span></div></foreignObject></g></g><g class="edgeLabel" transform="translate(468.974609375, 1023)"><g class="label" data-id="id_IOutputWriter_ScheduleReportWriter_6" transform="translate(-41.890625, -12)"><foreignObject width="83.78125" height="24"><div xmlns="http://www.w3.org/1999/xhtml" class="labelBkg" style="display: table-cell; white-space: nowrap; line-height: 1.5; max-width: 200px; text-align: center;"><span class="edgeLabel"><p>implements</p></span></div></foreignObject></g></g><g class="edgeLabel" transform="translate(771.439453125, 911)"><g class="label" data-id="id_OutputManager_ScheduleReportWriter_7" transform="translate(-15.2109375, -12)"><foreignObject width="30.421875" height="24"><div xmlns="http://www.w3.org/1999/xhtml" class="labelBkg" style="display: table-cell; white-space: nowrap; line-height: 1.5; max-width: 200px; text-align: center;"><span class="edgeLabel"><p>uses</p></span></div></foreignObject></g></g></g><g class="nodes"><g class="node default" id="my-svg-classId-AppController-0" data-look="classic" transform="translate(387.64453125, 140)"><g class="basic label-container outer-path"><path d="M-226.85546875 -132 L226.85546875 -132 L226.85546875 132 L-226.85546875 132" stroke="none" stroke-width="0" fill="#ECECFF" style=""/><path d="M-226.85546875 -132 C-130.71789433539638 -132, -34.58031992079276 -132, 226.85546875 -132 M-226.85546875 -132 C-93.66289182300514 -132, 39.52968510398972 -132, 226.85546875 -132 M226.85546875 -132 C226.85546875 -63.45064704106733, 226.85546875 5.098705917865345, 226.85546875 132 M226.85546875 -132 C226.85546875 -47.19417238313335, 226.85546875 37.6116552337333, 226.85546875 132 M226.85546875 132 C88.07561762485648 132, -50.704233500287046 132, -226.85546875 132 M226.85546875 132 C124.9839562474684 132, 23.112443744936797 132, -226.85546875 132 M-226.85546875 132 C-226.85546875 48.369432135838196, -226.85546875 -35.26113572832361, -226.85546875 -132 M-226.85546875 132 C-226.85546875 75.32269469856553, -226.85546875 18.64538939713104, -226.85546875 -132" stroke="#9370DB" stroke-width="1.3" fill="none" stroke-dasharray="0 0" style=""/></g><g class="annotation-group text" transform="translate(0, -108)"/><g class="label-group text" transform="translate(-52.3828125, -108)"><g class="label" style="font-weight: bolder" transform="translate(0,-12)"><foreignObject width="104.765625" height="24"><div xmlns="http://www.w3.org/1999/xhtml" style="display: table-cell; white-space: nowrap; line-height: 1.5; max-width: 143px; text-align: center;"><span class="nodeLabel markdown-node-label" style=""><p>AppController</p></span></div></foreignObject></g></g><g class="members-group text" transform="translate(-214.85546875, -60)"><g class="label" style="" transform="translate(0,-12)"><foreignObject width="226.40625" height="24"><div xmlns="http://www.w3.org/1999/xhtml" style="display: table-cell; white-space: nowrap; line-height: 1.5; max-width: 260px; text-align: center;"><span class="nodeLabel markdown-node-label" style=""><p>-courseParser: CourseFileParser</p></span></div></foreignObject></g><g class="label" style="" transform="translate(0,12)"><foreignObject width="260.796875" height="24"><div xmlns="http://www.w3.org/1999/xhtml" style="display: table-cell; white-space: nowrap; line-height: 1.5; max-width: 293px; text-align: center;"><span class="nodeLabel markdown-node-label" style=""><p>-periodParser: ExamPeriodFileParser</p></span></div></foreignObject></g><g class="label" style="" transform="translate(0,36)"><foreignObject width="289.609375" height="24"><div xmlns="http://www.w3.org/1999/xhtml" style="display: table-cell; white-space: nowrap; line-height: 1.5; max-width: 317px; text-align: center;"><span class="nodeLabel markdown-node-label" style=""><p>-programParser: ProgramSelectionParser</p></span></div></foreignObject></g><g class="label" style="" transform="translate(0,60)"><foreignObject width="188.28125" height="24"><div xmlns="http://www.w3.org/1999/xhtml" style="display: table-cell; white-space: nowrap; line-height: 1.5; max-width: 228px; text-align: center;"><span class="nodeLabel markdown-node-label" style=""><p>-engine: SchedulingEngine</p></span></div></foreignObject></g><g class="label" style="" transform="translate(0,84)"><foreignObject width="170.296875" height="24"><div xmlns="http://www.w3.org/1999/xhtml" style="display: table-cell; white-space: nowrap; line-height: 1.5; max-width: 208px; text-align: center;"><span class="nodeLabel markdown-node-label" style=""><p>-writer: OutputManager</p></span></div></foreignObject></g></g><g class="methods-group text" transform="translate(-214.85546875, 84)"><g class="label" style="" transform="translate(0,-12)"><foreignObject width="377.328125" height="24"><div xmlns="http://www.w3.org/1999/xhtml" style="display: table-cell; white-space: nowrap; line-height: 1.5; max-width: 393px; text-align: center;"><span class="nodeLabel markdown-node-label" style=""><p>+run(coursesPath, periodsPath, programsPath) : void</p></span></div></foreignObject></g><g class="label" style="" transform="translate(0,12)"><foreignObject width="215.5" height="24"><div xmlns="http://www.w3.org/1999/xhtml" style="display: table-cell; white-space: nowrap; line-height: 1.5; max-width: 246px; text-align: center;"><span class="nodeLabel markdown-node-label" style=""><p>-_validate_paths(paths) : void</p></span></div></foreignObject></g></g><g class="divider" style=""><path d="M-226.85546875 -84 C-102.24876018277945 -83.99972536102115, 22.3579483844411 -83.9994507220423, 226.85546875 -83.999 M-226.85546875 -84 C-79.97142212720044 -83.99967626073237, 66.91262449559912 -83.99935252146473, 226.85546875 -83.999" stroke="#9370DB" stroke-width="1.3" fill="none" stroke-dasharray="0 0" style=""/></g><g class="divider" style=""><path d="M-226.85546875 60 C-92.16994079580277 60.00029685316536, 42.51558715839445 60.00059370633071, 226.85546875 60.001 M-226.85546875 60 C-72.02502747287807 60.00034125349089, 82.80541380424387 60.00068250698178, 226.85546875 60.001" stroke="#9370DB" stroke-width="1.3" fill="none" stroke-dasharray="0 0" style=""/></g></g><g class="node default" id="my-svg-classId-Parsers-1" data-look="classic" transform="translate(125.37890625, 442)"><g class="basic label-container outer-path"><path d="M-117.37890625 -96 L117.37890625 -96 L117.37890625 96 L-117.37890625 96" stroke="none" stroke-width="0" fill="#ECECFF" style=""/><path d="M-117.37890625 -96 C-32.39763622416065 -96, 52.5836338016787 -96, 117.37890625 -96 M-117.37890625 -96 C-25.74978207214386 -96, 65.87934210571228 -96, 117.37890625 -96 M117.37890625 -96 C117.37890625 -38.114441735066045, 117.37890625 19.77111652986791, 117.37890625 96 M117.37890625 -96 C117.37890625 -20.935185009481913, 117.37890625 54.129629981036175, 117.37890625 96 M117.37890625 96 C54.20679752165272 96, -8.965311206694565 96, -117.37890625 96 M117.37890625 96 C66.26529066346393 96, 15.151675076927859 96, -117.37890625 96 M-117.37890625 96 C-117.37890625 19.936235722543955, -117.37890625 -56.12752855491209, -117.37890625 -96 M-117.37890625 96 C-117.37890625 56.611948713050545, -117.37890625 17.22389742610109, -117.37890625 -96" stroke="#9370DB" stroke-width="1.3" fill="none" stroke-dasharray="0 0" style=""/></g><g class="annotation-group text" transform="translate(-41.6015625, -72)"><g class="label" style="" transform="translate(0,-12)"><foreignObject width="83.203125" height="24"><div xmlns="http://www.w3.org/1999/xhtml" style="display: table-cell; white-space: nowrap; line-height: 1.5; max-width: 126px; text-align: center;"><span class="nodeLabel markdown-node-label" style=""><p>«boundary»</p></span></div></foreignObject></g></g><g class="label-group text" transform="translate(-26.90625, -48)"><g class="label" style="font-weight: bolder" transform="translate(0,-12)"><foreignObject width="53.8125" height="24"><div xmlns="http://www.w3.org/1999/xhtml" style="display: table-cell; white-space: nowrap; line-height: 1.5; max-width: 96px; text-align: center;"><span class="nodeLabel markdown-node-label" style=""><p>Parsers</p></span></div></foreignObject></g></g><g class="members-group text" transform="translate(-105.37890625, 0)"><g class="label" style="" transform="translate(0,-12)"><foreignObject width="118.953125" height="24"><div xmlns="http://www.w3.org/1999/xhtml" style="display: table-cell; white-space: nowrap; line-height: 1.5; max-width: 160px; text-align: center;"><span class="nodeLabel markdown-node-label" style=""><p>CourseFileParser</p></span></div></foreignObject></g><g class="label" style="" transform="translate(0,12)"><foreignObject width="154.078125" height="24"><div xmlns="http://www.w3.org/1999/xhtml" style="display: table-cell; white-space: nowrap; line-height: 1.5; max-width: 194px; text-align: center;"><span class="nodeLabel markdown-node-label" style=""><p>ExamPeriodFileParser</p></span></div></foreignObject></g><g class="label" style="" transform="translate(0,36)"><foreignObject width="169.15625" height="24"><div xmlns="http://www.w3.org/1999/xhtml" style="display: table-cell; white-space: nowrap; line-height: 1.5; max-width: 205px; text-align: center;"><span class="nodeLabel markdown-node-label" style=""><p>ProgramSelectionParser</p></span></div></foreignObject></g></g><g class="methods-group text" transform="translate(-105.37890625, 96)"/><g class="divider" style=""><path d="M-117.37890625 -24 C-67.68012842963248 -23.999788297661784, -17.981350609264936 -23.99957659532357, 117.37890625 -23.999 M-117.37890625 -24 C-51.764266709626725 -23.99972050072012, 13.85037283074655 -23.999441001440236, 117.37890625 -23.999" stroke="#9370DB" stroke-width="1.3" fill="none" stroke-dasharray="0 0" style=""/></g><g class="divider" style=""><path d="M-117.37890625 72 C-48.196462693136354 72.00029469708727, 20.985980863727292 72.00058939417454, 117.37890625 72.001 M-117.37890625 72 C-56.92198516822122 72.00025752889941, 3.534935913557561 72.00051505779884, 117.37890625 72.001" stroke="#9370DB" stroke-width="1.3" fill="none" stroke-dasharray="0 0" style=""/></g></g><g class="node default" id="my-svg-classId-Algorithm-2" data-look="classic" transform="translate(387.64453125, 442)"><g class="basic label-container outer-path"><path d="M-94.88671875 -72 L94.88671875 -72 L94.88671875 72 L-94.88671875 72" stroke="none" stroke-width="0" fill="#ECECFF" style=""/><path d="M-94.88671875 -72 C-22.843299697862975 -72, 49.20011935427405 -72, 94.88671875 -72 M-94.88671875 -72 C-28.718612033045147 -72, 37.449494683909705 -72, 94.88671875 -72 M94.88671875 -72 C94.88671875 -22.0119062039418, 94.88671875 27.976187592116403, 94.88671875 72 M94.88671875 -72 C94.88671875 -41.67944333209199, 94.88671875 -11.358886664183991, 94.88671875 72 M94.88671875 72 C26.790429075992506 72, -41.30586059801499 72, -94.88671875 72 M94.88671875 72 C29.401091242978907 72, -36.084536264042185 72, -94.88671875 72 M-94.88671875 72 C-94.88671875 38.405043768569996, -94.88671875 4.810087537139992, -94.88671875 -72 M-94.88671875 72 C-94.88671875 26.381798630637306, -94.88671875 -19.23640273872539, -94.88671875 -72" stroke="#9370DB" stroke-width="1.3" fill="none" stroke-dasharray="0 0" style=""/></g><g class="annotation-group text" transform="translate(-41.6015625, -48)"><g class="label" style="" transform="translate(0,-12)"><foreignObject width="83.203125" height="24"><div xmlns="http://www.w3.org/1999/xhtml" style="display: table-cell; white-space: nowrap; line-height: 1.5; max-width: 126px; text-align: center;"><span class="nodeLabel markdown-node-label" style=""><p>«boundary»</p></span></div></foreignObject></g></g><g class="label-group text" transform="translate(-36.5625, -24)"><g class="label" style="font-weight: bolder" transform="translate(0,-12)"><foreignObject width="73.125" height="24"><div xmlns="http://www.w3.org/1999/xhtml" style="display: table-cell; white-space: nowrap; line-height: 1.5; max-width: 117px; text-align: center;"><span class="nodeLabel markdown-node-label" style=""><p>Algorithm</p></span></div></foreignObject></g></g><g class="members-group text" transform="translate(-82.88671875, 24)"><g class="label" style="" transform="translate(0,-12)"><foreignObject width="124.171875" height="24"><div xmlns="http://www.w3.org/1999/xhtml" style="display: table-cell; white-space: nowrap; line-height: 1.5; max-width: 167px; text-align: center;"><span class="nodeLabel markdown-node-label" style=""><p>SchedulingEngine</p></span></div></foreignObject></g></g><g class="methods-group text" transform="translate(-82.88671875, 72)"/><g class="divider" style=""><path d="M-94.88671875 0 C-35.70109229416629 0.0003118751877792893, 23.484534161667426 0.0006237503755585785, 94.88671875 0.001 M-94.88671875 0 C-36.71511531792447 0.0003065318529210682, 21.456488114151057 0.0006130637058421364, 94.88671875 0.001" stroke="#9370DB" stroke-width="1.3" fill="none" stroke-dasharray="0 0" style=""/></g><g class="divider" style=""><path d="M-94.88671875 48 C-19.30150115625547 48.000398291871555, 56.28371643748906 48.00079658374311, 94.88671875 48.001 M-94.88671875 48 C-47.710070761223584 48.00024859457999, -0.5334227724471674 48.00049718915998, 94.88671875 48.001" stroke="#9370DB" stroke-width="1.3" fill="none" stroke-dasharray="0 0" style=""/></g></g><g class="node default" id="my-svg-classId-Output-3" data-look="classic" transform="translate(620.20703125, 442)"><g class="basic label-container outer-path"><path d="M-87.67578125 -72 L87.67578125 -72 L87.67578125 72 L-87.67578125 72" stroke="none" stroke-width="0" fill="#ECECFF" style=""/><path d="M-87.67578125 -72 C-21.789678520528014 -72, 44.09642420894397 -72, 87.67578125 -72 M-87.67578125 -72 C-30.3705557803789 -72, 26.9346696892422 -72, 87.67578125 -72 M87.67578125 -72 C87.67578125 -35.478852793971186, 87.67578125 1.042294412057629, 87.67578125 72 M87.67578125 -72 C87.67578125 -36.1443209915367, 87.67578125 -0.28864198307340416, 87.67578125 72 M87.67578125 72 C35.19117496345353 72, -17.293431323092946 72, -87.67578125 72 M87.67578125 72 C44.680977316745704 72, 1.6861733834914077 72, -87.67578125 72 M-87.67578125 72 C-87.67578125 36.073360562625794, -87.67578125 0.1467211252515881, -87.67578125 -72 M-87.67578125 72 C-87.67578125 26.467112386428532, -87.67578125 -19.065775227142936, -87.67578125 -72" stroke="#9370DB" stroke-width="1.3" fill="none" stroke-dasharray="0 0" style=""/></g><g class="annotation-group text" transform="translate(-41.6015625, -48)"><g class="label" style="" transform="translate(0,-12)"><foreignObject width="83.203125" height="24"><div xmlns="http://www.w3.org/1999/xhtml" style="display: table-cell; white-space: nowrap; line-height: 1.5; max-width: 126px; text-align: center;"><span class="nodeLabel markdown-node-label" style=""><p>«boundary»</p></span></div></foreignObject></g></g><g class="label-group text" transform="translate(-26.0859375, -24)"><g class="label" style="font-weight: bolder" transform="translate(0,-12)"><foreignObject width="52.171875" height="24"><div xmlns="http://www.w3.org/1999/xhtml" style="display: table-cell; white-space: nowrap; line-height: 1.5; max-width: 94px; text-align: center;"><span class="nodeLabel markdown-node-label" style=""><p>Output</p></span></div></foreignObject></g></g><g class="members-group text" transform="translate(-75.67578125, 24)"><g class="label" style="" transform="translate(0,-12)"><foreignObject width="109.75" height="24"><div xmlns="http://www.w3.org/1999/xhtml" style="display: table-cell; white-space: nowrap; line-height: 1.5; max-width: 151px; text-align: center;"><span class="nodeLabel markdown-node-label" style=""><p>OutputManager</p></span></div></foreignObject></g></g><g class="methods-group text" transform="translate(-75.67578125, 72)"/><g class="divider" style=""><path d="M-87.67578125 0 C-40.66031093517453 0.00026812119404311254, 6.355159379650942 0.0005362423880862251, 87.67578125 0.001 M-87.67578125 0 C-36.626069117948646 0.0002911277858276932, 14.423643014102709 0.0005822555716553864, 87.67578125 0.001" stroke="#9370DB" stroke-width="1.3" fill="none" stroke-dasharray="0 0" style=""/></g><g class="divider" style=""><path d="M-87.67578125 48 C-51.46265956231794 48.00020651724554, -15.249537874635877 48.00041303449107, 87.67578125 48.001 M-87.67578125 48 C-45.588241709538416 48.00024001804683, -3.500702169076831 48.00048003609366, 87.67578125 48.001" stroke="#9370DB" stroke-width="1.3" fill="none" stroke-dasharray="0 0" style=""/></g></g><g class="node default" id="my-svg-classId-IOutputWriter-4" data-look="classic" transform="translate(468.974609375, 911)"><g class="basic label-container outer-path"><path d="M-252.25390625 -75 L252.25390625 -75 L252.25390625 75 L-252.25390625 75" stroke="none" stroke-width="0" fill="#ECECFF" style=""/><path d="M-252.25390625 -75 C-68.35042752281521 -75, 115.55305120436958 -75, 252.25390625 -75 M-252.25390625 -75 C-82.65231528899378 -75, 86.94927567201245 -75, 252.25390625 -75 M252.25390625 -75 C252.25390625 -44.9245306306225, 252.25390625 -14.849061261244998, 252.25390625 75 M252.25390625 -75 C252.25390625 -29.248622633366388, 252.25390625 16.502754733267224, 252.25390625 75 M252.25390625 75 C73.8566476435054 75, -104.5406109629892 75, -252.25390625 75 M252.25390625 75 C104.80450205407004 75, -42.644902141859916 75, -252.25390625 75 M-252.25390625 75 C-252.25390625 20.880037064306627, -252.25390625 -33.239925871386745, -252.25390625 -75 M-252.25390625 75 C-252.25390625 22.09675085625951, -252.25390625 -30.806498287480977, -252.25390625 -75" stroke="#9370DB" stroke-width="1.3" fill="none" stroke-dasharray="0 0" style=""/></g><g class="annotation-group text" transform="translate(-41.171875, -51)"><g class="label" style="" transform="translate(0,-12)"><foreignObject width="82.34375" height="24"><div xmlns="http://www.w3.org/1999/xhtml" style="display: table-cell; white-space: nowrap; line-height: 1.5; max-width: 122px; text-align: center;"><span class="nodeLabel markdown-node-label" style=""><p>«interface»</p></span></div></foreignObject></g></g><g class="label-group text" transform="translate(-52.2265625, -27)"><g class="label" style="font-weight: bolder" transform="translate(0,-12)"><foreignObject width="104.453125" height="24"><div xmlns="http://www.w3.org/1999/xhtml" style="display: table-cell; white-space: nowrap; line-height: 1.5; max-width: 141px; text-align: center;"><span class="nodeLabel markdown-node-label" style=""><p>IOutputWriter</p></span></div></foreignObject></g></g><g class="members-group text" transform="translate(-240.25390625, 21)"/><g class="methods-group text" transform="translate(-240.25390625, 51)"><g class="label" style="" transform="translate(0,-12)"><foreignObject width="428.28125" height="24"><div xmlns="http://www.w3.org/1999/xhtml" style="display: table-cell; white-space: nowrap; line-height: 1.5; max-width: 429px; text-align: center;"><span class="nodeLabel markdown-node-label" style=""><p>+write(schedules, metadata, programs, output_path) : void</p></span></div></foreignObject></g></g><g class="divider" style=""><path d="M-252.25390625 -3 C-142.58844363252211 -2.9997826288118827, -32.9229810150442 -2.999565257623766, 252.25390625 -2.999 M-252.25390625 -3 C-110.46426866027687 -2.9997189545254273, 31.325368929446256 -2.9994379090508545, 252.25390625 -2.999" stroke="#9370DB" stroke-width="1.3" fill="none" stroke-dasharray="0 0" style=""/></g><g class="divider" style=""><path d="M-252.25390625 21 C-68.70270408934337 21.00036382231873, 114.84849807131326 21.000727644637458, 252.25390625 21.001 M-252.25390625 21 C-58.698266672087186 21.00038365241287, 134.85737290582563 21.000767304825743, 252.25390625 21.001" stroke="#9370DB" stroke-width="1.3" fill="none" stroke-dasharray="0 0" style=""/></g></g><g class="node default" id="my-svg-classId-OutputManager-5" data-look="classic" transform="translate(620.20703125, 687)"><g class="basic label-container outer-path"><path d="M-272.16015625 -75 L272.16015625 -75 L272.16015625 75 L-272.16015625 75" stroke="none" stroke-width="0" fill="#ECECFF" style=""/><path d="M-272.16015625 -75 C-68.23373277380435 -75, 135.6926907023913 -75, 272.16015625 -75 M-272.16015625 -75 C-149.0591240613063 -75, -25.95809187261264 -75, 272.16015625 -75 M272.16015625 -75 C272.16015625 -27.541379532487433, 272.16015625 19.917240935025134, 272.16015625 75 M272.16015625 -75 C272.16015625 -17.951063255291025, 272.16015625 39.09787348941795, 272.16015625 75 M272.16015625 75 C142.4858672796572 75, 12.811578309314427 75, -272.16015625 75 M272.16015625 75 C149.439957013004 75, 26.71975777600798 75, -272.16015625 75 M-272.16015625 75 C-272.16015625 30.564054448106198, -272.16015625 -13.871891103787604, -272.16015625 -75 M-272.16015625 75 C-272.16015625 23.083613931317878, -272.16015625 -28.832772137364245, -272.16015625 -75" stroke="#9370DB" stroke-width="1.3" fill="none" stroke-dasharray="0 0" style=""/></g><g class="annotation-group text" transform="translate(0, -51)"/><g class="label-group text" transform="translate(-57.3203125, -51)"><g class="label" style="font-weight: bolder" transform="translate(0,-12)"><foreignObject width="114.640625" height="24"><div xmlns="http://www.w3.org/1999/xhtml" style="display: table-cell; white-space: nowrap; line-height: 1.5; max-width: 151px; text-align: center;"><span class="nodeLabel markdown-node-label" style=""><p>OutputManager</p></span></div></foreignObject></g></g><g class="members-group text" transform="translate(-260.16015625, -3)"/><g class="methods-group text" transform="translate(-260.16015625, 27)"><g class="label" style="" transform="translate(0,-12)"><foreignObject width="276.84375" height="24"><div xmlns="http://www.w3.org/1999/xhtml" style="display: table-cell; white-space: nowrap; line-height: 1.5; max-width: 304px; text-align: center;"><span class="nodeLabel markdown-node-label" style=""><p>+prepareOutputDir(path: String) : void</p></span></div></foreignObject></g><g class="label" style="" transform="translate(0,12)"><foreignObject width="463" height="24"><div xmlns="http://www.w3.org/1999/xhtml" style="display: table; white-space: break-spaces; line-height: 1.5; max-width: 463px; text-align: center; width: 463px;"><span class="nodeLabel markdown-node-label" style=""><p>+writeReport(schedules, metadata, programs, output_dir) : void</p></span></div></foreignObject></g></g><g class="divider" style=""><path d="M-272.16015625 -27 C-57.51411176008057 -26.99960566225518, 157.13193272983887 -26.999211324510362, 272.16015625 -26.999 M-272.16015625 -27 C-77.50954464572212 -26.999642396935894, 117.14106695855577 -26.99928479387179, 272.16015625 -26.999" stroke="#9370DB" stroke-width="1.3" fill="none" stroke-dasharray="0 0" style=""/></g><g class="divider" style=""><path d="M-272.16015625 -3 C-92.77316660739041 -2.999670438553324, 86.61382303521918 -2.9993408771066483, 272.16015625 -2.999 M-272.16015625 -3 C-66.83265398318676 -2.999622781848203, 138.49484828362648 -2.999245563696406, 272.16015625 -2.999" stroke="#9370DB" stroke-width="1.3" fill="none" stroke-dasharray="0 0" style=""/></g></g><g class="node default" id="my-svg-classId-ScheduleReportWriter-6" data-look="classic" transform="translate(620.20703125, 1147)"><g class="basic label-container outer-path"><path d="M-270.765625 -87 L270.765625 -87 L270.765625 87 L-270.765625 87" stroke="none" stroke-width="0" fill="#ECECFF" style=""/><path d="M-270.765625 -87 C-66.0315860669887 -87, 138.7024528660226 -87, 270.765625 -87 M-270.765625 -87 C-137.81782509161067 -87, -4.870025183221344 -87, 270.765625 -87 M270.765625 -87 C270.765625 -26.251109295501706, 270.765625 34.49778140899659, 270.765625 87 M270.765625 -87 C270.765625 -28.06053757869688, 270.765625 30.87892484260624, 270.765625 87 M270.765625 87 C161.29410612560469 87, 51.8225872512094 87, -270.765625 87 M270.765625 87 C77.65571132070744 87, -115.45420235858512 87, -270.765625 87 M-270.765625 87 C-270.765625 27.195451446134385, -270.765625 -32.60909710773123, -270.765625 -87 M-270.765625 87 C-270.765625 23.680598104960836, -270.765625 -39.63880379007833, -270.765625 -87" stroke="#9370DB" stroke-width="1.3" fill="none" stroke-dasharray="0 0" style=""/></g><g class="annotation-group text" transform="translate(0, -63)"/><g class="label-group text" transform="translate(-83.03125, -63)"><g class="label" style="font-weight: bolder" transform="translate(0,-12)"><foreignObject width="166.0625" height="24"><div xmlns="http://www.w3.org/1999/xhtml" style="display: table-cell; white-space: nowrap; line-height: 1.5; max-width: 193px; text-align: center;"><span class="nodeLabel markdown-node-label" style=""><p>ScheduleReportWriter</p></span></div></foreignObject></g></g><g class="members-group text" transform="translate(-258.765625, -15)"/><g class="methods-group text" transform="translate(-258.765625, 15)"><g class="label" style="" transform="translate(0,-12)"><foreignObject width="428.28125" height="24"><div xmlns="http://www.w3.org/1999/xhtml" style="display: table-cell; white-space: nowrap; line-height: 1.5; max-width: 429px; text-align: center;"><span class="nodeLabel markdown-node-label" style=""><p>+write(schedules, metadata, programs, output_path) : void</p></span></div></foreignObject></g><g class="label" style="" transform="translate(0,12)"><foreignObject width="434.5" height="24"><div xmlns="http://www.w3.org/1999/xhtml" style="display: table-cell; white-space: nowrap; line-height: 1.5; max-width: 483px; text-align: center;"><span class="nodeLabel markdown-node-label" style=""><p>-_buildReport(schedules, metadata, programs) : List&lt;String&gt;</p></span></div></foreignObject></g><g class="label" style="" transform="translate(0,36)"><foreignObject width="419.859375" height="24"><div xmlns="http://www.w3.org/1999/xhtml" style="display: table-cell; white-space: nowrap; line-height: 1.5; max-width: 424px; text-align: center;"><span class="nodeLabel markdown-node-label" style=""><p>-_printSummary(metadata, schedules, output_path) : void</p></span></div></foreignObject></g></g><g class="divider" style=""><path d="M-270.765625 -39 C-114.86642212366891 -38.999712114115525, 41.03278075266218 -38.99942422823106, 270.765625 -38.999 M-270.765625 -39 C-143.24437605227 -38.99976451728511, -15.723127104539998 -38.99952903457022, 270.765625 -38.999" stroke="#9370DB" stroke-width="1.3" fill="none" stroke-dasharray="0 0" style=""/></g><g class="divider" style=""><path d="M-270.765625 -15 C-81.46098004999851 -14.999650427108408, 107.84366490000298 -14.999300854216816, 270.765625 -14.999 M-270.765625 -15 C-60.335845824325645 -14.999611417108106, 150.0939333513487 -14.999222834216214, 270.765625 -14.999" stroke="#9370DB" stroke-width="1.3" fill="none" stroke-dasharray="0 0" style=""/></g></g></g></g></g><defs><filter id="my-svg-drop-shadow" height="130%" width="130%"><feDropShadow dx="4" dy="4" stdDeviation="0" flood-opacity="0.06" flood-color="#000000"/></filter></defs><defs><filter id="my-svg-drop-shadow-small" height="150%" width="150%"><feDropShadow dx="2" dy="2" stdDeviation="0" flood-opacity="0.06" flood-color="#000000"/></filter></defs></svg>